<svg width="50" height="50" viewBox="0 0 50 50" fill="none" xmlns="http://www.w3.org/2000/svg">
<g id="Correo">
<circle id="Ellipse 1" cx="25" cy="25" r="25" fill="#6F7AE4"/>
<g id="Group 1">
<path id="Vector" d="M36.5449 17.1803V12.5116H30.3084L25.5 9L20.6916 12.5116H14.4551V17.1803L11 19.7291V37.9999H40V19.7291L36.5449 17.1803ZM22.3279 30.2137L12.6992 35.6897V21.9996L22.3279 30.2137ZM24.0255 31.203H26.9745L35.9379 36.3007H15.0621L24.0255 31.203ZM28.6721 30.2137L38.3008 21.9996V35.6897L28.6721 30.2137ZM37.7847 20.2064L36.5449 21.264V19.2918L37.7847 20.2064ZM25.5 11.1041L27.4273 12.5116H23.5727L25.5 11.1041ZM34.8457 14.2108V22.7136L26.8861 29.5038H24.1139L16.1543 22.7136V14.2108H34.8457ZM14.4551 21.264L13.2153 20.2063L14.4551 19.2918V21.264Z" fill="white"/>
<path id="Vector_2" d="M25.5 27.8044C26.1796 27.8044 26.8466 27.6905 27.4824 27.4658L26.9161 25.8637C26.4627 26.0239 25.9862 26.1052 25.5 26.1052C23.1577 26.1052 21.252 24.1996 21.252 21.8572C21.252 19.5148 23.1577 17.6091 25.5 17.6091C27.8424 17.6091 29.7481 19.5148 29.7481 21.8572C29.7481 22.3257 29.367 22.7068 28.8985 22.7068C28.43 22.7068 28.0489 22.3257 28.0489 21.8572C28.0489 20.954 28.0489 20.1953 28.0489 19.3083H25.5C24.0946 19.3083 22.9512 20.4518 22.9512 21.8572C22.9512 23.2626 24.0946 24.406 25.5 24.406C26.1524 24.406 26.748 24.1594 27.1993 23.7549C27.6506 24.1594 28.2462 24.406 28.8985 24.406C30.3039 24.406 31.4473 23.2626 31.4473 21.8572C31.4473 18.5779 28.7794 15.9099 25.5 15.9099C22.2207 15.9099 19.5528 18.5779 19.5528 21.8572C19.5528 25.1365 22.2207 27.8044 25.5 27.8044ZM25.5 22.7068C25.0315 22.7068 24.6504 22.3257 24.6504 21.8572C24.6504 21.3887 25.0315 21.0076 25.5 21.0076H26.3496V21.8572C26.3496 22.3257 25.9685 22.7068 25.5 22.7068Z" fill="white"/>
</g>
</g>
</svg>
