<svg width="50" height="50" viewBox="0 0 50 50" fill="none" xmlns="http://www.w3.org/2000/svg">
<circle cx="25" cy="25" r="25" fill="#6F7AE4"/>
<path d="M31.7209 10H18.2787C13.7138 10 10 13.714 10 18.2789V31.7211C10 36.2862 13.7138 40 18.2787 40H31.7209C36.2862 40 40 36.286 40 31.7211V18.2789C40.0002 13.714 36.2862 10 31.7209 10ZM37.3384 31.7211C37.3384 34.8185 34.8185 37.3383 31.7211 37.3383H18.2787C15.1815 37.3384 12.6617 34.8185 12.6617 31.7211V18.2789C12.6617 15.1817 15.1815 12.6617 18.2787 12.6617H31.7209C34.8183 12.6617 37.3383 15.1817 37.3383 18.2789V31.7211H37.3384Z" fill="white"/>
<path d="M25 17.2701C20.7375 17.2701 17.2698 20.7378 17.2698 25.0004C17.2698 29.2627 20.7375 32.7302 25 32.7302C29.2625 32.7302 32.7302 29.2627 32.7302 25.0004C32.7302 20.7378 29.2625 17.2701 25 17.2701ZM25 30.0683C22.2053 30.0683 19.9315 27.7948 19.9315 25.0002C19.9315 22.2053 22.2052 19.9317 25 19.9317C27.7948 19.9317 30.0685 22.2053 30.0685 25.0002C30.0685 27.7948 27.7947 30.0683 25 30.0683Z" fill="white"/>
<path d="M33.0544 15.0131C32.5416 15.0131 32.0378 15.2207 31.6757 15.5845C31.3117 15.9465 31.1025 16.4505 31.1025 16.9651C31.1025 17.4781 31.3119 17.9819 31.6757 18.3456C32.0377 18.7076 32.5416 18.917 33.0544 18.917C33.569 18.917 34.0712 18.7076 34.435 18.3456C34.7988 17.9819 35.0064 17.4779 35.0064 16.9651C35.0064 16.4505 34.7988 15.9465 34.435 15.5845C34.073 15.2207 33.569 15.0131 33.0544 15.0131Z" fill="white"/>
</svg>
