<svg width="50" height="50" viewBox="0 0 50 50" fill="none" xmlns="http://www.w3.org/2000/svg">
<g id="Tarjeta">
<circle id="Ellipse 1" cx="25" cy="25" r="25" fill="#6F7AE4"/>
<g id="vcard">
<path id="Vector" d="M27.7639 36.5451C27.8021 36.5477 27.8398 36.5507 27.8785 36.5507H36.6096C37.6312 36.5507 38.4615 35.7195 38.4615 34.6987V14.4586C38.4615 13.4377 37.6312 12.6066 36.6096 12.6066H27.8785C27.8401 12.6066 27.8021 12.6103 27.7639 12.6126V10.1961L10.7231 12.4703V36.7017L27.7639 39.0347V36.5451ZM27.7639 27.649H30.1987V27.2446H27.7639V26.2579H30.1987V25.8527H27.7639V24.9154H30.1987V24.51H27.7639V23.5647H30.1987V23.1602H27.7639V21.9106H35.9037C35.9222 21.9106 35.9373 21.9263 35.9373 21.9447V29.0335C35.9373 29.0522 35.9222 29.0671 35.9037 29.0671H27.7639V27.649ZM27.8786 13.6649H36.6096C37.0473 13.6649 37.4033 14.0211 37.4033 14.4586V34.6987C37.4033 35.1361 37.0473 35.4924 36.6096 35.4924H27.8786C27.8396 35.4924 27.8016 35.4867 27.7639 35.481V29.4046H35.9037C36.1083 29.4046 36.2747 29.2388 36.2747 29.0336V21.9447C36.2747 21.7397 36.1083 21.5733 35.9037 21.5733H27.7639V13.6768C27.8016 13.671 27.8393 13.6649 27.8786 13.6649ZM14.9396 27.9662L13.6131 27.8972L12.0701 22.4816L13.2567 22.448L13.8557 24.7478C14.0254 25.4004 14.1808 26.0319 14.3 26.7217L14.3223 26.7225C14.4492 26.0631 14.607 25.4091 14.7805 24.7776L15.4375 22.3866L16.7079 22.3506L14.9396 27.9662ZM20.1335 27.2064C20.5391 27.2218 20.9948 27.1495 21.2649 27.0511L21.4728 28.1332C21.2191 28.2471 20.654 28.352 19.9325 28.3143C17.9529 28.2091 16.9737 26.9243 16.9737 25.2929C16.9737 23.338 18.3182 22.2111 20.0642 22.1593C20.7614 22.1386 21.3013 22.2668 21.5459 22.3866L21.2649 23.4835C20.9855 23.3704 20.6012 23.2684 20.1248 23.2751C19.0782 23.2906 18.2852 23.9336 18.2852 25.2319C18.2854 26.4002 18.9592 27.161 20.1335 27.2064ZM26.4325 23.28L23.8463 23.3147V24.749L26.2581 24.7612V25.9517L23.8463 25.9041V28.4284L22.3949 28.353V22.1914L26.4325 22.0776V23.28Z" fill="white"/>
<path id="Vector_2" d="M34.7239 25.6992L33.9247 25.2787C33.9247 25.2787 33.8825 25.2287 33.8085 25.1675C33.963 24.9898 34.0798 24.7518 34.109 24.5169C34.1317 24.5001 34.1697 24.4606 34.1844 24.369C34.1844 24.369 34.2793 24.0275 34.14 24.0926C34.2379 23.5738 34.1638 23.3965 34.1638 23.3965C34.0645 23.0537 34.0563 22.9794 33.6953 22.8884C33.3358 22.7969 32.8873 22.9381 32.8873 22.9381C32.5887 23.0271 32.4657 23.1951 32.4657 23.1951C32.2038 23.4901 32.3396 23.965 32.3799 24.087C32.2629 24.0524 32.3518 24.369 32.3518 24.369C32.366 24.4599 32.4035 24.5001 32.4272 24.5169C32.4593 24.7479 32.5856 24.9967 32.7574 25.1799C32.72 25.2081 32.6825 25.2391 32.6445 25.2747C32.6445 25.2747 32.6414 25.405 32.2712 25.5352C32.2712 25.5352 31.5777 25.7538 31.4637 26.0065C31.4637 26.0065 31.0855 26.8689 31.1734 27.6343C31.1734 27.6343 31.1776 27.6978 31.3036 27.7778C31.3036 27.7778 32.1764 28.1432 33.3759 28.1184C33.3759 28.1184 34.5426 28.059 35.2872 27.7267C35.2872 27.7267 35.3927 27.7019 35.3968 27.458C35.3968 27.458 35.3586 26.3894 35.0351 25.9099C35.035 25.9104 34.9425 25.7843 34.7239 25.6992Z" fill="white"/>
</g>
</g>
</svg>
