<svg width="50" height="50" viewBox="0 0 50 50" fill="none" xmlns="http://www.w3.org/2000/svg">
<g id="Telefono">
<circle id="Ellipse 1" cx="25" cy="25" r="25" fill="#6F7AE4"/>
<path id="Vector" fill-rule="evenodd" clip-rule="evenodd" d="M25 40C33.2842 40 40 33.2842 40 25C40 16.7157 33.2842 10 25 10C16.7157 10 10 16.7157 10 25C10 33.2842 16.7157 40 25 40ZM32.0545 28.6302L30.2722 26.8441C29.6782 26.2488 28.4901 26.2488 27.8961 26.8441L26.7079 28.0348C24.577 27.7316 22.2525 25.3557 21.9555 23.272L23.1436 22.0813C23.7376 21.4859 23.7378 20.2952 23.1436 19.6999L21.3508 17.9822C20.7566 17.3869 19.5794 17.3184 18.9853 17.9138C17.7972 19.1045 17.5 19.9977 17.5 21.1883C17.5 22.9744 17.7974 25.0578 21.3616 28.6299C24.9261 32.202 26.4107 32.5 28.7869 32.5C29.3956 32.5 30.9051 32.1634 32.0544 31.0116C32.6485 30.4161 32.6485 29.2255 32.0545 28.6302Z" fill="white"/>
</g>
</svg>
