<svg width="50" height="50" viewBox="0 0 50 50" fill="none" xmlns="http://www.w3.org/2000/svg">
<g id="Whatsapp">
<circle id="Ellipse 1" cx="25" cy="25" r="25" fill="#6F7AE4"/>
<g id="XMLID_468_">
<path id="XMLID_469_" d="M32.1984 27.2384C32.14 27.2103 29.9529 26.1334 29.5643 25.9935C29.4056 25.9365 29.2356 25.8809 29.0549 25.8809C28.7595 25.8809 28.5114 26.0281 28.3182 26.3172C28.0997 26.6419 27.4384 27.415 27.234 27.6459C27.2073 27.6764 27.1709 27.7128 27.1491 27.7128C27.1295 27.7128 26.791 27.5735 26.6886 27.5289C24.3424 26.5098 22.5616 24.0591 22.3174 23.6458C22.2826 23.5864 22.2811 23.5594 22.2808 23.5594C22.2894 23.5279 22.3683 23.4488 22.409 23.408C22.5281 23.2902 22.6572 23.1348 22.782 22.9845C22.8412 22.9133 22.9004 22.842 22.9585 22.7748C23.1397 22.564 23.2203 22.4004 23.3139 22.2109L23.3628 22.1124C23.5912 21.6588 23.3962 21.276 23.3331 21.1524C23.2814 21.0489 22.3579 18.8202 22.2598 18.586C22.0237 18.021 21.7117 17.7579 21.2781 17.7579C21.2379 17.7579 21.2781 17.7579 21.1094 17.765C20.904 17.7737 19.7853 17.921 19.2907 18.2327C18.7662 18.5634 17.8789 19.6175 17.8789 21.4713C17.8789 23.1397 18.9376 24.715 19.3922 25.3141C19.4035 25.3292 19.4243 25.3599 19.4544 25.4039C21.1952 27.9463 23.3655 29.8305 25.5655 30.7093C27.6835 31.5554 28.6865 31.6532 29.2567 31.6532H29.2568C29.4964 31.6532 29.6882 31.6344 29.8574 31.6177L29.9647 31.6075C30.6964 31.5426 32.3043 30.7094 32.6701 29.693C32.9582 28.8925 33.0341 28.0178 32.8425 27.7004C32.7112 27.4845 32.4849 27.3759 32.1984 27.2384Z" fill="white"/>
<path id="XMLID_470_" d="M25.2663 10C17.1413 10 10.5312 16.5605 10.5312 24.6243C10.5312 27.2325 11.2292 29.7855 12.5514 32.0199L10.0206 39.4853C9.97348 39.6245 10.0085 39.7784 10.1115 39.8832C10.1858 39.9591 10.2866 40 10.3896 40C10.429 40 10.4688 39.9941 10.5075 39.9817L18.292 37.508C20.4222 38.6462 22.8298 39.247 25.2664 39.247C33.3905 39.2471 40 32.6873 40 24.6243C40 16.5605 33.3905 10 25.2663 10ZM25.2663 36.2007C22.9735 36.2007 20.7528 35.5387 18.8439 34.2861C18.7797 34.2439 18.7052 34.2223 18.6302 34.2223C18.5906 34.2223 18.5509 34.2283 18.5122 34.2406L14.6127 35.4801L15.8715 31.7663C15.9122 31.6461 15.8919 31.5135 15.8169 31.411C14.3632 29.4248 13.5948 27.0781 13.5948 24.6243C13.5948 18.2403 18.8306 13.0464 25.2662 13.0464C31.701 13.0464 36.9362 18.2403 36.9362 24.6243C36.9363 31.0076 31.7012 36.2007 25.2663 36.2007Z" fill="white"/>
</g>
</g>
</svg>
